<svg xmlns="http://www.w3.org/2000/svg" width="760" height="360" viewBox="0 0 760 360">
  <defs>
    <linearGradient id="skeleton" x1="0" y1="0" x2="1" y2="0">
      <stop offset="0" stop-color="#f1f3f6"/>
      <stop offset="0.48" stop-color="#e6e9f0"/>
      <stop offset="1" stop-color="#f1f3f6"/>
    </linearGradient>
  </defs>
  <rect width="760" height="360" rx="12" fill="#f7f9fc"/>
  <rect x="34" y="28" width="692" height="304" rx="12" fill="#ffffff" stroke="#e5eaf3"/>

  <rect x="58" y="52" width="48" height="48" rx="12" fill="#ece7ff"/>
  <rect x="122" y="52" width="148" height="18" rx="9" fill="url(#skeleton)"/>
  <rect x="278" y="54" width="54" height="18" rx="4" fill="rgba(43,179,163,0.10)"/>
  <circle cx="292" cy="63" r="3" fill="#2bb3a3"/>
  <rect x="344" y="54" width="112" height="18" rx="4" fill="#fafbfc"/>
  <rect x="122" y="82" width="88" height="10" rx="5" fill="url(#skeleton)"/>
  <rect x="224" y="82" width="160" height="10" rx="5" fill="url(#skeleton)"/>
  <rect x="398" y="82" width="108" height="10" rx="5" fill="url(#skeleton)"/>
  <rect x="562" y="58" width="72" height="32" rx="6" fill="#2bb3a3"/>
  <rect x="646" y="58" width="56" height="32" rx="6" fill="#6e4bff"/>

  <rect x="58" y="122" width="644" height="45" rx="12" fill="#ffffff"/>
  <line x1="58" y1="166" x2="702" y2="166" stroke="#f4f5f7"/>
  <text x="82" y="150" font-size="14" fill="#3a3f47">概览</text>
  <text x="158" y="150" font-size="14" font-weight="600" fill="#6e4bff">设备接入</text>
  <line x1="154" y1="166" x2="226" y2="166" stroke="#6e4bff" stroke-width="2"/>
  <text x="258" y="150" font-size="14" fill="#3a3f47">设备指令</text>
  <text x="358" y="150" font-size="14" fill="#8895ab">设备数据</text>
  <text x="458" y="150" font-size="14" fill="#8895ab">设备日志</text>

  <rect x="58" y="188" width="644" height="112" rx="12" fill="#ffffff" stroke="#f4f5f7"/>
  <rect x="82" y="212" width="120" height="14" rx="7" fill="url(#skeleton)"/>
  <rect x="82" y="242" width="250" height="10" rx="5" fill="url(#skeleton)"/>
  <rect x="82" y="264" width="190" height="10" rx="5" fill="url(#skeleton)"/>
  <rect x="382" y="212" width="108" height="14" rx="7" fill="url(#skeleton)"/>
  <rect x="382" y="242" width="210" height="10" rx="5" fill="url(#skeleton)"/>
  <rect x="382" y="264" width="150" height="10" rx="5" fill="url(#skeleton)"/>
</svg>
