<svg xmlns="http://www.w3.org/2000/svg" width="760" height="360" viewBox="0 0 760 360">
  <defs>
    <linearGradient id="skeleton" x1="0" y1="0" x2="1" y2="0">
      <stop offset="0" stop-color="#f1f3f6"/>
      <stop offset="0.5" stop-color="#e6e9f0"/>
      <stop offset="1" stop-color="#f1f3f6"/>
    </linearGradient>
  </defs>
  <rect width="760" height="360" rx="12" fill="#f7f9fc"/>
  <rect x="34" y="30" width="692" height="300" rx="12" fill="#fff" stroke="#e5eaf3"/>

  <text x="58" y="68" font-size="18" font-weight="700" fill="#111827">&#x9009;&#x62E9;&#x8BBE;&#x5907;&#x5E93;</text>
  <text x="58" y="96" font-size="12" fill="#7b8798">&#x5DE6;&#x4FA7;&#x9009;&#x62E9;&#x8BBE;&#x5907;&#x5927;&#x7C7B;&#xFF0C;&#x53F3;&#x4FA7;&#x9009;&#x62E9;&#x5177;&#x4F53;&#x8BBE;&#x5907;&#x6A21;&#x677F;&#xFF0C;&#x70B9;&#x51FB;&#x6A21;&#x677F;&#x8FDB;&#x5165;&#x4E0B;&#x4E00;&#x6B65;</text>

  <rect x="58" y="122" width="150" height="184" rx="10" fill="#fbfcff" stroke="#dbe4f0"/>
  <rect x="74" y="140" width="118" height="30" rx="8" fill="#f0ecff" stroke="#6e4bff"/>
  <text x="114" y="160" font-size="13" font-weight="700" fill="#6e4bff">&#x4F20;&#x611F;&#x5668;</text>
  <rect x="74" y="178" width="118" height="30" rx="8" fill="#fff" stroke="#eef1f6"/>
  <text x="114" y="198" font-size="13" fill="#6b7280">&#x63A7;&#x5236;&#x5668;</text>
  <rect x="74" y="216" width="118" height="30" rx="8" fill="#fff" stroke="#eef1f6"/>
  <text x="120" y="236" font-size="13" fill="#6b7280">&#x7F51;&#x5173;</text>
  <rect x="74" y="254" width="118" height="30" rx="8" fill="#fff" stroke="#eef1f6"/>
  <text x="120" y="274" font-size="13" fill="#6b7280">&#x7167;&#x660E;</text>

  <rect x="232" y="122" width="470" height="184" rx="10" fill="#fff" stroke="#dbe4f0"/>

  <rect x="252" y="142" width="430" height="36" rx="8" fill="#fff" stroke="#e5eaf3"/>
  <circle cx="276" cy="160" r="12" fill="#ece7ff"/>
  <text x="302" y="164" font-size="14" font-weight="600" fill="#111827">&#x96F7;&#x8FBE;&#x4F20;&#x611F;&#x5668;</text>
  <rect x="302" y="170" width="188" height="6" rx="3" fill="url(#skeleton)"/>
  <rect x="508" y="170" width="104" height="6" rx="3" fill="url(#skeleton)"/>

  <rect x="252" y="188" width="430" height="36" rx="8" fill="#faf9ff" stroke="#6e4bff"/>
  <circle cx="276" cy="206" r="12" fill="#6e4bff"/>
  <text x="302" y="210" font-size="14" font-weight="600" fill="#111827">&#x503E;&#x89D2;&#x4F20;&#x611F;&#x5668;</text>
  <rect x="302" y="216" width="214" height="6" rx="3" fill="url(#skeleton)"/>
  <rect x="532" y="216" width="82" height="6" rx="3" fill="url(#skeleton)"/>

  <rect x="252" y="234" width="430" height="36" rx="8" fill="#fff" stroke="#e5eaf3"/>
  <circle cx="276" cy="252" r="12" fill="#ece7ff"/>
  <text x="302" y="256" font-size="14" font-weight="600" fill="#111827">&#x6E29;&#x6E7F;&#x5EA6;&#x4F20;&#x611F;&#x5668;</text>
  <rect x="302" y="262" width="176" height="6" rx="3" fill="url(#skeleton)"/>
  <rect x="494" y="262" width="120" height="6" rx="3" fill="url(#skeleton)"/>

  <path d="M654 206l8 8 8-8" fill="none" stroke="#6e4bff" stroke-width="2" stroke-linecap="round" stroke-linejoin="round" transform="rotate(-90 662 210)"/>
</svg>
