<svg xmlns="http://www.w3.org/2000/svg" width="760" height="360" viewBox="0 0 760 360">
  <defs><linearGradient id="sk" x1="0" y1="0" x2="1" y2="0"><stop offset="0" stop-color="#f1f3f6"/><stop offset="0.5" stop-color="#e6e9f0"/><stop offset="1" stop-color="#f1f3f6"/></linearGradient></defs>
  <rect width="760" height="360" rx="12" fill="#f7f9fc"/>
  <rect x="46" y="28" width="668" height="304" rx="12" fill="#fff" stroke="#e5eaf3"/>
  <text x="70" y="62" font-size="18" font-weight="700" fill="#111827">&#x65B0;&#x5EFA;&#x544A;&#x8B66;&#x89C4;&#x5219;</text>
  <line x1="46" y1="84" x2="714" y2="84" stroke="#f4f5f7"/>
  <circle cx="92" cy="112" r="11" fill="#6e4bff"/><text x="88" y="116" font-size="11" font-weight="700" fill="#fff">1</text><text x="112" y="116" font-size="12" font-weight="700" fill="#6e4bff">&#x57FA;&#x7840;&#x4FE1;&#x606F;</text>
  <circle cx="220" cy="112" r="11" fill="#fafbfc"/><text x="216" y="116" font-size="11" fill="#8895ab">2</text><text x="240" y="116" font-size="12" fill="#8895ab">&#x573A;&#x666F;&#x7B97;&#x6CD5;</text>
  <circle cx="348" cy="112" r="11" fill="#fafbfc"/><text x="344" y="116" font-size="11" fill="#8895ab">3</text><text x="368" y="116" font-size="12" fill="#8895ab">&#x751F;&#x6548;&#x6444;&#x50CF;&#x5934;</text>
  <circle cx="504" cy="112" r="11" fill="#fafbfc"/><text x="500" y="116" font-size="11" fill="#8895ab">4</text><text x="524" y="116" font-size="12" fill="#8895ab">&#x751F;&#x6548;&#x65F6;&#x6BB5;</text>
  <circle cx="632" cy="112" r="11" fill="#fafbfc"/><text x="628" y="116" font-size="11" fill="#8895ab">5</text><text x="652" y="116" font-size="12" fill="#8895ab">&#x901A;&#x77E5;&#x5BF9;&#x8C61;</text>
  <line x1="46" y1="138" x2="714" y2="138" stroke="#f4f5f7"/>
  <text x="70" y="174" font-size="13" font-weight="600" fill="#111827">&#x89C4;&#x5219;&#x540D;&#x79F0;</text>
  <rect x="70" y="186" width="620" height="34" rx="6" fill="#fff" stroke="#ebedf0"/>
  <rect x="88" y="198" width="190" height="10" rx="5" fill="url(#sk)"/>
  <text x="70" y="248" font-size="13" font-weight="600" fill="#111827">&#x544A;&#x8B66;&#x7B49;&#x7EA7;</text>
  <rect x="70" y="260" width="76" height="28" rx="4" fill="#fff1f0" stroke="#ff4d4f"/><text x="92" y="279" font-size="12" fill="#ff4d4f">&#x7D27;&#x6025;</text>
  <rect x="156" y="260" width="76" height="28" rx="4" fill="#fff" stroke="#ebedf0"/>
  <rect x="242" y="260" width="76" height="28" rx="4" fill="#fff" stroke="#ebedf0"/>
  <text x="360" y="248" font-size="13" font-weight="600" fill="#111827">&#x89C4;&#x5219;&#x63CF;&#x8FF0;</text>
  <rect x="360" y="260" width="330" height="44" rx="6" fill="#fff" stroke="#ebedf0"/>
  <rect x="378" y="274" width="180" height="8" rx="4" fill="url(#sk)"/><rect x="378" y="290" width="250" height="8" rx="4" fill="url(#sk)"/>
</svg>
